<svg width="430" height="122" viewBox="0 0 430 122" xmlns="http://www.w3.org/2000/svg" xmlns:xlink="http://www.w3.org/1999/xlink"><title>Logo 1</title><defs><path d="M215.656 78.744s4.66 3.485 7.867 4.75c3.428 1.354 12.04 3.106 12.04 3.106s-8.783 1.88-11.964 3.135c-3.456 1.363-7.944 4.72-7.944 4.72s-3.777-3.538-7.36-4.95c-3.053-1.206-12.546-2.905-12.546-2.905s9.204-1.627 12.493-2.926c3.346-1.32 7.413-4.93 7.413-4.93z" id="path-1"/><mask id="mask-2" x="0" y="0" width="39.812" height="15.712" fill="#fff"><use xlink:href="#path-1"/></mask></defs><g id="Page-1" fill="none" fill-rule="evenodd"><g id="Logo-1" transform="translate(0 -6)" fill="#000"><text id="Peter-Dekker’s" font-family="SnellRoundhand, Snell Roundhand" font-size="34.5"><tspan x="118.773" y="32">Peter Dekker’s</tspan></text><text id="antique-arms-&amp;-armor" font-family="PerpetuaTitlingMT-Light, Perpetua Titling MT" font-size="26.224" font-weight="300" letter-spacing="5.025"><tspan x="1.374" y="123.579">antique arms &amp; armo</tspan> <tspan x="413.422" y="123.579">r</tspan></text><use id="Wiebster" stroke="#000" mask="url(#mask-2)" stroke-width="1.5" xlink:href="#path-1"/><path d="M1.412 86.436H174M1.5 31.803h96M333 30.675h96M255.75 86.436H428.9" id="Line" stroke="#000" stroke-width="1.5" stroke-linecap="square"/><text id="MANDARIN-MANSION" font-family="PerpetuaTitlingMT-Bold, Perpetua Titling MT" font-size="34.966" font-weight="bold" letter-spacing=".9"><tspan x="3.336" y="71.14">MANDARIN MANSIO</tspan> <tspan x="398.403" y="71.14">N</tspan></text></g></g></svg>